PathFileType	4	(X/Y/Z)	c:/Users/goper/Files/vsCode/490R/osim_files/C11/C11_Static02.trc
DataRate	CameraRate	NumFrames	NumMarkers	Units                	OrigDataRate	OrigDataStartFrame	OrigNumFrames
120.00	120.00	9	36	mm	120.0	490	978
                Frame#	Time	LPSI			LASI			LTH1			LTH2			LTH3			LTH4			LLFE			LMFE			LSH1			LSH2			LSH3			LSH4			LLMA			LMMA			LCAL			LMTP			LTOE			LMTP			RPSI			RASI			RTH1			RTH2			RTH3			RTH4			RLFE			RMFE			RSH1			RSH2			RSH3			RSH4			RLMA			RMMA			RCAL			RMTP			RTOE			RMTP		
		X1	Y1	Z1	X2	Y2	Z2	X3	Y3	Z3	X4	Y4	Z4	X5	Y5	Z5	X6	Y6	Z6	X7	Y7	Z7	X8	Y8	Z8	X9	Y9	Z9	X10	Y10	Z10	X11	Y11	Z11	X12	Y12	Z12	X13	Y13	Z13	X14	Y14	Z14	X15	Y15	Z15	X16	Y16	Z16	X17	Y17	Z17	X18	Y18	Z18	X19	Y19	Z19	X20	Y20	Z20	X21	Y21	Z21	X22	Y22	Z22	X23	Y23	Z23	X24	Y24	Z24	X25	Y25	Z25	X26	Y26	Z26	X27	Y27	Z27	X28	Y28	Z28	X29	Y29	Z29	X30	Y30	Z30	X31	Y31	Z31	X32	Y32	Z32	X33	Y33	Z33	X34	Y34	Z34	X35	Y35	Z35	X36	Y36	Z36

490	4.07500	-370.81537	1020.54773	496.25256	-190.94417	1006.59161	436.98911	-299.95023	599.73578	349.57367	-290.21460	553.22345	353.10632	-240.25209	607.68726	356.41299	-240.34145	561.05255	362.00699	-296.01245	514.33246	353.17099	-285.06232	503.29712	463.73404	-354.59598	410.23782	340.10318	-354.17276	366.63403	336.75665	-292.48431	405.24054	332.88864	-301.55115	361.22745	331.54614	-336.31644	94.79095	378.58289	-302.06961	110.57974	469.68387	-391.97287	58.81677	435.32394	-225.47316	39.87940	340.81122	-149.91183	56.98364	405.76996	-187.27954	44.91509	454.14343	-372.86115	1031.00122	582.23956	-218.01637	999.08362	673.02344	-328.96457	603.49561	724.54559	-321.45529	560.20807	721.97083	-266.51785	606.97046	718.89014	-269.24307	564.02625	718.64978	-306.63297	519.29688	713.68024	-321.13184	491.90466	600.11053	-378.92166	413.28528	730.15436	-374.83258	366.95056	731.76892	-318.21234	409.48117	730.75793	-321.64896	363.50851	734.87854	-357.69110	97.72237	703.62183	-318.24918	105.87237	613.10620	-413.39005	59.80812	643.32031	-195.05733	49.01517	652.37128	-198.14926	61.72402	702.65820	-246.74139	39.48254	757.39734
491	4.08333	-370.83578	1020.57489	496.30063	-190.89871	1006.57507	437.21631	-299.95132	599.74457	349.71185	-290.28052	553.25635	353.22742	-240.23557	607.69812	356.58228	-240.32558	561.06989	362.19022	-296.04300	514.35132	353.26349	-285.16623	503.25443	463.80743	-354.68121	410.27377	340.20804	-354.22424	366.66724	336.83649	-292.49524	405.27448	332.96893	-301.55338	361.25604	331.61682	-336.32812	94.82470	378.60727	-302.04977	110.54898	469.68076	-391.98764	58.82297	435.33136	-225.46082	39.89873	340.80557	-149.89975	56.98965	405.80536	-187.23761	44.93924	454.16364	-372.92181	1031.00098	582.28674	-218.16853	999.11542	673.20581	-329.16797	603.48102	724.58698	-321.61050	560.18121	722.01794	-266.73462	606.96942	719.02252	-269.42581	564.00159	718.76990	-306.75989	519.28204	713.74146	-321.25031	491.93524	600.16663	-379.05603	413.25284	730.19666	-374.91373	366.89450	731.79053	-318.27930	409.48355	730.81287	-321.73148	363.51355	734.92523	-357.66321	97.68898	703.61072	-318.24020	105.89285	613.11517	-413.39767	59.82673	643.30469	-195.03795	49.04179	652.40247	-198.13390	61.74674	702.67914	-246.74380	39.49273	757.41162
492	4.09167	-370.87393	1020.60480	496.39487	-190.87823	1006.56445	437.43842	-299.99948	599.77765	349.82245	-290.36221	553.29108	353.34100	-240.25900	607.74591	356.74722	-240.35802	561.10590	362.34329	-296.10690	514.38776	353.34717	-284.56812	503.46671	463.89236	-354.78137	410.28305	340.30240	-354.28748	366.70517	336.91788	-292.52432	405.34695	333.07083	-301.59079	361.32071	331.68060	-336.36273	94.87484	378.64697	-302.07782	110.51231	469.70016	-391.98520	58.80040	435.38455	-225.48515	39.91510	340.81656	-149.86409	57.02200	405.83533	-187.22797	44.93741	454.20721	-372.97913	1031.00781	582.37115	-218.27336	999.12244	673.41180	-329.31171	603.43042	724.66052	-321.76056	560.12268	722.10632	-266.91830	606.92371	719.17450	-269.57275	563.98547	718.89612	-306.88412	519.21930	713.83374	-321.40915	491.95981	600.23199	-379.15402	413.18274	730.25568	-374.98279	366.79779	731.83301	-318.40176	409.40842	730.90289	-321.84738	363.47574	735.01849	-357.62064	97.60498	703.61847	-318.24872	105.92992	613.13824	-413.38171	59.79597	643.32245	-194.98262	49.08956	652.44244	-198.12288	61.78819	702.73016	-246.77315	39.49141	757.43988
493	4.10000	-370.89877	1020.63574	496.48813	-190.90009	1006.51746	437.62964	-300.07642	599.77234	349.91617	-290.46780	553.29016	353.44293	-240.34154	607.74426	356.89130	-240.44380	561.10089	362.47339	-296.15955	514.39929	353.41940	-284.61282	503.48532	463.99228	-354.35727	410.44977	340.08160	-354.35751	366.70587	336.96448	-292.58582	405.39401	333.11508	-301.61697	361.35538	331.73129	-336.37405	94.87344	378.63412	-302.10736	110.44639	469.73575	-391.94995	58.73572	435.44162	-225.49863	39.98102	340.75705	-149.89368	56.99182	405.86987	-187.28122	44.88411	454.23578	-373.00128	1030.99841	582.47272	-218.39972	999.09576	673.61047	-329.41672	603.38873	724.78137	-321.91977	560.06653	722.24866	-267.10706	606.86035	719.33087	-269.72290	563.92212	719.00439	-307.00964	519.14502	713.93823	-321.54391	491.97256	600.31708	-379.25757	413.10464	730.36108	-375.05688	366.70459	731.91602	-318.61926	409.28012	730.98071	-321.98138	363.42361	735.12323	-357.62421	97.54280	703.66632	-318.27182	105.95097	613.14526	-413.09229	59.88012	643.13037	-195.01253	49.05244	652.48145	-198.16179	61.74062	702.77893	-246.79903	39.45757	757.47711
494	4.10833	-370.93262	1020.62531	496.60687	-190.95079	1006.42273	437.80112	-300.18405	599.74469	349.99448	-290.58755	553.26825	353.53424	-240.47179	607.70215	357.00345	-240.57355	561.03400	362.55640	-296.27136	514.38562	353.48203	-285.50229	503.03049	464.17416	-354.43262	410.42401	340.10391	-354.42383	366.67542	336.99017	-292.70813	405.37720	333.15668	-301.71252	361.33478	331.76157	-336.39407	94.84574	378.62158	-302.15445	110.40283	469.75174	-391.95322	58.68981	435.44516	-225.51570	39.96132	340.76086	-149.90450	56.97096	405.86816	-187.29802	44.85624	454.23386	-373.13318	1031.02722	582.61835	-218.50745	999.06775	673.78375	-329.52673	603.35437	724.86993	-322.07150	560.02747	722.35474	-267.25385	606.77356	719.44257	-269.83975	563.87170	719.09143	-307.13754	519.11926	714.04022	-321.67523	491.96024	600.40082	-379.35104	413.06265	730.44727	-375.11029	366.64700	731.99487	-318.65674	409.26227	731.05621	-322.05548	363.37173	735.17328	-357.64587	97.51016	703.67328	-318.26025	105.92277	613.14417	-413.12988	59.85181	643.12299	-195.16135	49.12026	652.40057	-198.16777	61.70961	702.77570	-246.80493	39.42929	757.46484
495	4.11667	-370.92682	1020.58447	496.76419	-191.00566	1006.32098	437.93872	-300.29343	599.69745	350.06799	-290.70520	553.20355	353.60690	-240.61615	607.63361	357.09241	-240.72328	560.97852	362.63049	-296.39740	514.31592	353.52823	-285.62479	503.05438	464.24072	-354.51773	410.39783	340.16245	-354.50006	366.61746	337.04791	-292.81564	405.33942	333.20526	-301.79044	361.30862	331.78845	-336.37943	94.77289	378.61096	-302.16187	110.39755	469.74664	-391.93689	58.64744	435.37659	-225.50394	39.93292	340.74301	-149.90813	56.94265	405.83020	-187.27914	44.85502	454.19366	-373.12054	1031.04639	582.79755	-218.53828	999.11584	673.90997	-329.55264	603.33820	724.98334	-322.13733	560.03949	722.47443	-267.25726	606.81232	719.52631	-269.85336	563.89661	719.15179	-307.19830	519.13873	714.13452	-321.80338	491.93900	600.49493	-379.43057	413.05722	730.53613	-375.16699	366.65158	732.05194	-318.62842	409.32248	731.13068	-322.08289	363.36618	735.20764	-357.66095	97.52254	703.64240	-318.30267	105.85899	613.16254	-413.08487	59.80296	643.13263	-195.03403	49.00441	652.43530	-198.14146	61.69945	702.72772	-246.78825	39.40300	757.43597
496	4.12500	-370.96332	1020.57001	496.97989	-191.04842	1006.23669	438.07800	-300.42188	599.68567	350.16287	-290.82883	553.17535	353.70233	-240.73192	607.62085	357.16830	-240.85387	560.95416	362.67990	-296.50760	514.30817	353.58728	-285.01743	503.45758	464.26743	-354.60406	410.34723	340.23187	-354.56546	366.61441	337.09149	-292.91150	405.35498	333.24973	-301.86798	361.30188	331.83191	-336.37387	94.74060	378.61014	-302.13522	110.47048	469.72595	-391.96924	58.67656	435.32709	-225.52849	39.84879	340.81116	-149.91647	56.96997	405.78693	-187.25237	44.90100	454.14908	-373.14883	1031.08276	583.01263	-218.55606	999.19427	674.01923	-329.56873	603.38953	725.11548	-322.22162	560.11127	722.57581	-267.23831	606.88599	719.60657	-269.83911	563.94562	719.22882	-307.28714	519.21460	714.21869	-321.83997	491.95459	600.62213	-379.48746	413.10318	730.62805	-375.21762	366.72760	732.10583	-318.60349	409.43063	731.20410	-322.08270	363.44858	735.25854	-357.70682	97.59511	703.65240	-318.29865	105.84674	613.17255	-413.38345	59.76365	643.32947	-195.03958	49.01017	652.39569	-198.13277	61.73265	702.68842	-246.77776	39.41970	757.42169
497	4.13333	-371.03122	1020.57678	497.16098	-190.81912	1006.12982	438.19250	-300.59579	599.67078	350.26617	-290.99023	553.19678	353.78217	-240.91518	607.65802	357.23697	-241.00146	561.00586	362.73581	-296.65277	514.34399	353.66531	-285.25436	503.49768	464.30844	-354.54913	410.31451	340.41068	-354.67310	366.60303	337.14993	-293.02298	405.40085	333.29932	-301.95465	361.36044	331.86255	-336.37064	94.73878	378.63547	-302.16260	110.51570	469.72195	-391.98743	58.71437	435.30341	-225.50749	40.00300	340.72552	-149.90300	57.03758	405.77213	-187.23465	44.97077	454.13660	-373.19223	1031.14465	583.18958	-218.57399	999.28992	674.14789	-329.60077	603.42426	725.23889	-322.24136	560.14496	722.69604	-267.18683	606.94659	719.69684	-269.83115	563.97296	719.32635	-307.35706	519.23730	714.30475	-321.86450	492.01315	600.73969	-379.53482	413.13162	730.72217	-375.24329	366.73624	732.18622	-318.58865	409.52933	731.28101	-322.09271	363.48798	735.32513	-357.72528	97.62013	703.65045	-318.29156	105.86622	613.18750	-413.40695	59.79319	643.31610	-195.03069	49.08405	652.37634	-198.13286	61.77268	702.67499	-246.78372	39.45928	757.41339
498	4.14167	-371.08636	1020.59174	497.33801	-190.87411	1006.07526	438.33228	-300.80930	599.70386	350.34418	-291.18332	553.21674	353.83838	-241.07915	607.72174	357.29169	-241.17143	561.04321	362.77582	-296.83896	514.40289	353.73035	-285.33676	503.50180	464.39050	-354.88882	410.36935	340.37088	-354.80499	366.63007	337.21094	-293.13449	405.47839	333.34750	-302.07132	361.40176	331.89835	-336.37732	94.78783	378.64404	-302.16779	110.52472	469.72910	-392.00104	58.73825	435.31332	-225.51825	39.91248	340.81619	-149.90141	57.08089	405.79813	-187.26964	44.98801	454.16269	-373.20807	1031.18176	583.34320	-218.61270	999.33008	674.28857	-329.51596	603.42920	725.40485	-322.19843	560.15381	722.81744	-267.16785	606.93616	719.80157	-269.81506	563.97638	719.42029	-307.37320	519.23077	714.38989	-321.87207	492.07364	600.80188	-379.51230	413.10074	730.82751	-375.20193	366.69598	732.26544	-318.64072	409.48230	731.33069	-322.06183	363.48566	735.40002	-357.71500	97.60249	703.63831	-318.28659	105.93359	613.19550	-413.37610	59.79142	643.31873	-195.02672	49.13802	652.39972	-198.14236	61.80399	702.70532	-246.79623	39.48248	757.42419
